<?xml version="1.0" ?><svg style="enable-background:new 0 0 24 24;" version="1.1" viewBox="0 0 24 24" xml:space="preserve" xmlns="http://www.w3.org/2000/svg" xmlns:xlink="http://www.w3.org/1999/xlink"><style type="text/css">
	.st0{display:none;}
	.st1{display:inline;}
	.st2{opacity:0.2;fill:none;stroke:#000000;stroke-width:5.000000e-02;stroke-miterlimit:10;}
</style><g class="st0" id="grid_system"/><g id="_icons"><path d="M7,12c0,2.8,2.2,5,5,5s5-2.2,5-5s-2.2-5-5-5S7,9.2,7,12z M12,9c1.7,0,3,1.3,3,3s-1.3,3-3,3s-3-1.3-3-3S10.3,9,12,9z"/><path d="M13,5V3c0-0.6-0.4-1-1-1s-1,0.4-1,1v2c0,0.6,0.4,1,1,1S13,5.6,13,5z"/><path d="M19.1,4.9c-0.4-0.4-1-0.4-1.4,0l-1.4,1.4c-0.4,0.4-0.4,1,0,1.4c0.2,0.2,0.5,0.3,0.7,0.3s0.5-0.1,0.7-0.3l1.4-1.4   C19.5,6,19.5,5.3,19.1,4.9z"/><path d="M21,11h-2c-0.6,0-1,0.4-1,1s0.4,1,1,1h2c0.6,0,1-0.4,1-1S21.6,11,21,11z"/><path d="M17.7,16.2c-0.4-0.4-1-0.4-1.4,0s-0.4,1,0,1.4l1.4,1.4c0.2,0.2,0.5,0.3,0.7,0.3s0.5-0.1,0.7-0.3c0.4-0.4,0.4-1,0-1.4   L17.7,16.2z"/><path d="M11,19v2c0,0.6,0.4,1,1,1s1-0.4,1-1v-2c0-0.6-0.4-1-1-1S11,18.4,11,19z"/><path d="M4.9,19.1c0.2,0.2,0.5,0.3,0.7,0.3s0.5-0.1,0.7-0.3l1.4-1.4c0.4-0.4,0.4-1,0-1.4s-1-0.4-1.4,0l-1.4,1.4   C4.5,18,4.5,18.7,4.9,19.1z"/><path d="M2,12c0,0.6,0.4,1,1,1h2c0.6,0,1-0.4,1-1s-0.4-1-1-1H3C2.4,11,2,11.4,2,12z"/><path d="M6.3,4.9c-0.4-0.4-1-0.4-1.4,0s-0.4,1,0,1.4l1.4,1.4C6.5,8,6.8,8.1,7.1,8.1S7.6,8,7.8,7.8c0.4-0.4,0.4-1,0-1.4L6.3,4.9z"/></g></svg>